# This file uses centimeters as units for non-parametric coordinates.

mtllib shelf_table.mtl
g default
v 8.523403 10.101272 0.168646
v 8.596500 10.101274 -6.105938
v 3.233275 10.101274 -6.168417
v 3.160177 10.101272 0.106165
v 3.160177 3.005418 0.106165
v 3.233275 3.005419 -6.168417
v 8.596500 3.005419 -6.105938
v 8.523403 3.005418 0.168644
v 8.596500 3.663672 -6.105938
v 8.523403 3.663671 0.168644
v 3.233275 3.663672 -6.168417
v 3.160177 3.663671 0.106165
v 3.233275 4.699369 -6.168417
v 8.596500 4.699369 -6.105938
v 8.523403 4.699369 0.168644
v 3.160177 4.699369 0.106165
v 8.596500 5.014145 -6.105938
v 8.523403 5.014145 0.168644
v 3.233275 5.014145 -6.168417
v 3.160177 5.014145 0.106165
v 3.233275 6.049843 -6.168417
v 8.596500 6.049848 -6.105938
v 8.523403 6.049847 0.168646
v 3.160177 6.049843 0.106165
v 8.596500 6.364624 -6.105938
v 8.523403 6.364623 0.168646
v 3.233275 6.364624 -6.168417
v 3.160177 6.364623 0.106165
v 3.233275 7.400322 -6.168417
v 8.596500 7.400322 -6.105938
v 8.523403 7.400320 0.168646
v 3.160177 7.400320 0.106165
v 8.596500 7.715102 -6.105938
v 8.523403 7.715102 0.168646
v 3.233275 7.715102 -6.168417
v 3.160177 7.715102 0.106165
v 3.233275 8.750796 -6.168417
v 8.596500 8.750800 -6.105938
v 8.523403 8.750797 0.168646
v 3.160177 8.750794 0.106165
v 8.596500 9.065575 -6.105938
v 8.523403 9.065574 0.168646
v 3.233275 9.065575 -6.168417
v 3.160177 9.065574 0.106165
v 8.594086 3.845231 -5.898634
v 8.525818 3.845230 -0.038656
v 8.594086 4.517811 -5.898634
v 8.525818 4.517810 -0.038656
v 3.230860 4.517811 -5.961115
v 3.162592 4.517810 -0.101137
v 3.230860 3.845226 -5.961117
v 3.162592 3.845225 -0.101137
v 8.594086 5.195704 -5.898634
v 8.525818 5.195703 -0.038656
v 8.594086 5.868285 -5.898634
v 8.525818 5.868283 -0.038655
v 3.230860 5.868285 -5.961115
v 3.162592 5.868283 -0.101137
v 3.230860 5.195704 -5.961115
v 3.162592 5.195703 -0.101137
v 8.594086 6.546183 -5.898634
v 8.525818 6.546181 -0.038655
v 8.594086 7.218762 -5.898634
v 8.525818 7.218761 -0.038655
v 3.230860 7.218762 -5.961115
v 3.162592 7.218761 -0.101137
v 3.230860 6.546183 -5.961115
v 3.162592 6.546181 -0.101137
v 8.594086 7.896658 -5.898634
v 8.525818 7.896656 -0.038655
v 8.594086 8.569236 -5.898634
v 8.525818 8.569236 -0.038655
v 3.230860 8.569236 -5.961115
v 3.162592 8.569236 -0.101137
v 3.230860 7.896658 -5.961115
v 3.162592 7.896656 -0.101137
v 8.594086 9.247135 -5.898634
v 8.525818 9.247134 -0.038655
v 8.594086 9.919714 -5.898634
v 8.525818 9.919714 -0.038655
v 3.230860 9.919714 -5.961115
v 3.162592 9.919714 -0.101137
v 3.230860 9.247135 -5.961115
v 3.162592 9.247134 -0.101137
vt 0.001827 0.001992
vt 0.249842 0.001992
vt 0.249842 0.028011
vt 0.001827 0.028011
vt 0.241648 0.035187
vt 0.010020 0.035187
vt 0.249842 0.068949
vt 0.241648 0.061772
vt 0.001827 0.068949
vt 0.010020 0.061772
vt 0.249842 0.081391
vt 0.241648 0.088568
vt 0.010020 0.088568
vt 0.001827 0.081391
vt 0.249842 0.122329
vt 0.241648 0.115153
vt 0.001826 0.122329
vt 0.010020 0.115153
vt 0.249842 0.134772
vt 0.001826 0.134772
vt 0.241648 0.141948
vt 0.010020 0.141948
vt 0.249842 0.175710
vt 0.241648 0.168533
vt 0.001826 0.175710
vt 0.010020 0.168533
vt 0.249842 0.188152
vt 0.241648 0.195328
vt 0.010020 0.195328
vt 0.001826 0.188152
vt 0.249842 0.229090
vt 0.241648 0.221913
vt 0.001826 0.229090
vt 0.010020 0.221913
vt 0.249842 0.241532
vt 0.001826 0.241532
vt 0.241648 0.248709
vt 0.010020 0.248709
vt 0.249842 0.282470
vt 0.241648 0.275294
vt 0.001826 0.282470
vt 0.010020 0.275294
vt 0.721766 0.028011
vt 0.473751 0.028011
vt 0.473751 0.001992
vt 0.721766 0.001992
vt 0.713573 0.035187
vt 0.481945 0.035187
vt 0.721766 0.068949
vt 0.713573 0.061772
vt 0.473751 0.068949
vt 0.481945 0.061772
vt 0.721766 0.081391
vt 0.713573 0.088568
vt 0.481945 0.088568
vt 0.473751 0.081391
vt 0.721766 0.122329
vt 0.713573 0.115153
vt 0.473751 0.122329
vt 0.481945 0.115153
vt 0.721766 0.134772
vt 0.473751 0.134772
vt 0.713573 0.141948
vt 0.481945 0.141948
vt 0.721766 0.175710
vt 0.713573 0.168533
vt 0.473751 0.175710
vt 0.481945 0.168533
vt 0.721766 0.188152
vt 0.713573 0.195328
vt 0.481945 0.195328
vt 0.473751 0.188152
vt 0.721766 0.229090
vt 0.713573 0.221913
vt 0.473751 0.229090
vt 0.481945 0.221913
vt 0.721766 0.241532
vt 0.473751 0.241532
vt 0.713573 0.248709
vt 0.481945 0.248709
vt 0.721766 0.282470
vt 0.713573 0.275294
vt 0.473751 0.282470
vt 0.481945 0.275294
vt 0.482533 0.534146
vt 0.485423 0.286130
vt 0.697415 0.288600
vt 0.694526 0.536615
vt 0.474210 0.286130
vt 0.476908 0.517758
vt 0.264915 0.520227
vt 0.262217 0.288600
vt 0.256592 0.288600
vt 0.253893 0.520227
vt 0.041901 0.517758
vt 0.044599 0.286130
vt 0.213819 0.523887
vt 0.216517 0.755515
vt 0.004525 0.757985
vt 0.001826 0.526357
vt 0.438274 0.526357
vt 0.435575 0.757985
vt 0.223583 0.755515
vt 0.226281 0.523887
vt 0.657153 0.540275
vt 0.659851 0.771903
vt 0.447858 0.774373
vt 0.445160 0.542745
vt 0.467740 0.282470
vt 0.255747 0.282470
vt 0.255747 0.256452
vt 0.467740 0.256452
vt 0.255747 0.215513
vt 0.467740 0.215513
vt 0.255747 0.203071
vt 0.467740 0.203071
vt 0.255747 0.162133
vt 0.467740 0.162133
vt 0.255747 0.149691
vt 0.467740 0.149691
vt 0.255747 0.108753
vt 0.467740 0.108753
vt 0.255747 0.096310
vt 0.467740 0.096310
vt 0.255747 0.055372
vt 0.467740 0.055372
vt 0.255747 0.042930
vt 0.467740 0.042930
vt 0.255747 0.001992
vt 0.467740 0.001992
vt 0.703040 0.286130
vt 0.915033 0.286130
vt 0.915033 0.312149
vt 0.703040 0.312149
vt 0.915033 0.353087
vt 0.703040 0.353087
vt 0.915033 0.365529
vt 0.703040 0.365529
vt 0.915033 0.406467
vt 0.703040 0.406467
vt 0.915033 0.418909
vt 0.703040 0.418909
vt 0.915033 0.459848
vt 0.703040 0.459848
vt 0.915033 0.472290
vt 0.703040 0.472290
vt 0.915033 0.513228
vt 0.703040 0.513228
vt 0.915033 0.525670
vt 0.703040 0.525670
vt 0.915033 0.566608
vt 0.703040 0.566608
vt 0.666737 0.570363
vt 0.693323 0.570363
vt 0.693323 0.782356
vt 0.666737 0.782356
vt 0.700499 0.570268
vt 0.700499 0.782260
vt 0.715013 0.570268
vt 0.741598 0.570268
vt 0.741598 0.782260
vt 0.715013 0.782260
vt 0.707837 0.570363
vt 0.707837 0.782356
vt 0.802316 0.570268
vt 0.828901 0.570268
vt 0.828901 0.782260
vt 0.802316 0.782260
vt 0.775521 0.782260
vt 0.775521 0.570268
vt 0.748936 0.570268
vt 0.748936 0.782260
vt 0.835068 0.570268
vt 0.861653 0.570268
vt 0.861653 0.782260
vt 0.835068 0.782260
vt 0.888448 0.570268
vt 0.888448 0.782260
vt 0.915033 0.570268
vt 0.915033 0.782260
vt 0.802857 0.785920
vt 0.829442 0.785920
vt 0.829442 0.997913
vt 0.802857 0.997913
vt 0.776062 0.997913
vt 0.776062 0.785920
vt 0.749477 0.785920
vt 0.749477 0.997913
vt 0.663886 0.786016
vt 0.690471 0.786016
vt 0.690471 0.998008
vt 0.663886 0.998008
vt 0.717266 0.786016
vt 0.717266 0.998008
vt 0.743851 0.786016
vt 0.743852 0.998008
vn 0.000000 -1.000000 -0.000000
vn 0.000000 -1.000000 -0.000000
vn 0.000000 -1.000000 -0.000000
vn 0.000000 -1.000000 -0.000000
vn 0.999932 0.000000 0.011649
vn 0.999932 0.000000 0.011649
vn 0.999932 0.000000 0.011649
vn 0.999932 0.000000 0.011649
vn 0.011649 0.000000 -0.999932
vn 0.011649 0.000000 -0.999932
vn 0.011649 0.000000 -0.999932
vn 0.011649 0.000000 -0.999932
vn -0.999932 0.000000 -0.011649
vn -0.999932 0.000000 -0.011649
vn -0.999932 0.000000 -0.011649
vn -0.999932 0.000000 -0.011649
vn -0.011649 0.000000 0.999932
vn -0.011649 0.000000 0.999932
vn -0.011649 0.000000 0.999932
vn -0.011649 0.000000 0.999932
vn 0.011649 0.000000 -0.999932
vn 0.011649 0.000000 -0.999932
vn 0.011649 0.000000 -0.999932
vn 0.011649 0.000000 -0.999932
vn -0.011649 0.000000 0.999932
vn -0.011649 0.000000 0.999932
vn -0.011649 0.000000 0.999932
vn -0.011649 0.000000 0.999932
vn 0.011649 0.000000 -0.999932
vn 0.011649 0.000000 -0.999932
vn 0.011649 0.000000 -0.999932
vn 0.011649 0.000000 -0.999932
vn -0.011649 0.000000 0.999932
vn -0.011649 0.000000 0.999932
vn -0.011649 0.000000 0.999932
vn -0.011649 0.000000 0.999932
vn 0.011649 0.000000 -0.999932
vn 0.011649 0.000000 -0.999932
vn 0.011649 0.000000 -0.999932
vn 0.011649 0.000000 -0.999932
vn -0.011649 -0.000001 0.999932
vn -0.011649 -0.000001 0.999932
vn -0.011649 -0.000001 0.999932
vn -0.011649 -0.000001 0.999932
vn 0.999932 0.000000 0.011649
vn 0.999932 0.000000 0.011649
vn 0.999932 0.000000 0.011649
vn 0.999932 0.000000 0.011649
vn 0.011649 0.000000 -0.999932
vn 0.011649 0.000000 -0.999932
vn 0.011649 0.000000 -0.999932
vn 0.011649 0.000000 -0.999932
vn -0.999932 0.000000 -0.011649
vn -0.999932 0.000000 -0.011649
vn -0.999932 0.000000 -0.011649
vn -0.999932 0.000000 -0.011649
vn -0.011649 0.000000 0.999932
vn -0.011649 0.000000 0.999932
vn -0.011649 0.000000 0.999932
vn -0.011649 0.000000 0.999932
vn 0.011649 0.000000 -0.999932
vn 0.011649 0.000000 -0.999932
vn 0.011649 0.000000 -0.999932
vn 0.011649 0.000000 -0.999932
vn -0.011649 0.000000 0.999932
vn -0.011649 0.000000 0.999932
vn -0.011649 0.000000 0.999932
vn -0.011649 0.000000 0.999932
vn 0.011648 0.000000 -0.999932
vn 0.011648 0.000000 -0.999932
vn 0.011648 0.000000 -0.999932
vn 0.011648 0.000000 -0.999932
vn -0.011649 0.000000 0.999932
vn -0.011649 0.000000 0.999932
vn -0.011649 0.000000 0.999932
vn -0.011649 0.000000 0.999932
vn 0.011649 0.000000 -0.999932
vn 0.011649 0.000000 -0.999932
vn 0.011649 0.000000 -0.999932
vn 0.011649 0.000000 -0.999932
vn -0.011649 0.000000 0.999932
vn -0.011649 0.000000 0.999932
vn -0.011649 0.000000 0.999932
vn -0.011649 0.000000 0.999932
vn 0.999932 0.000000 0.011649
vn 0.999932 0.000000 0.011649
vn 0.999932 0.000000 0.011649
vn 0.999932 0.000000 0.011649
vn 0.011649 0.000000 -0.999932
vn 0.011649 0.000000 -0.999932
vn 0.011649 0.000000 -0.999932
vn 0.011649 0.000000 -0.999932
vn -0.999932 0.000000 -0.011649
vn -0.999932 0.000000 -0.011649
vn -0.999932 0.000000 -0.011649
vn -0.999932 0.000000 -0.011649
vn -0.011649 0.000000 0.999932
vn -0.011649 0.000000 0.999932
vn -0.011649 0.000000 0.999932
vn -0.011649 0.000000 0.999932
vn 0.011649 0.000000 -0.999932
vn 0.011649 0.000000 -0.999932
vn 0.011649 0.000000 -0.999932
vn 0.011649 0.000000 -0.999932
vn -0.011649 0.000000 0.999932
vn -0.011649 0.000000 0.999932
vn -0.011649 0.000000 0.999932
vn -0.011649 0.000000 0.999932
vn 0.999932 0.000001 0.011649
vn 0.999932 0.000001 0.011649
vn 0.999932 0.000001 0.011649
vn 0.999932 0.000001 0.011649
vn 0.999932 0.000000 0.011647
vn 0.999932 0.000000 0.011647
vn 0.999932 0.000000 0.011647
vn 0.999932 0.000000 0.011647
vn 0.999932 0.000000 0.011647
vn 0.999932 0.000000 0.011647
vn 0.999932 0.000000 0.011647
vn 0.999932 0.000000 0.011647
vn -0.999932 0.000000 -0.011649
vn -0.999932 0.000000 -0.011649
vn -0.999932 0.000000 -0.011649
vn -0.999932 0.000000 -0.011649
vn -0.999932 -0.000001 -0.011649
vn -0.999932 -0.000001 -0.011649
vn -0.999932 -0.000001 -0.011649
vn -0.999932 -0.000001 -0.011649
vn -0.999932 0.000000 -0.011649
vn -0.999932 0.000000 -0.011649
vn -0.999932 0.000000 -0.011649
vn -0.999932 0.000000 -0.011649
vn 0.999932 0.000000 0.011647
vn 0.999932 0.000000 0.011647
vn 0.999932 0.000000 0.011647
vn 0.999932 0.000000 0.011647
vn 0.999932 0.000001 0.011649
vn 0.999932 0.000001 0.011649
vn 0.999932 0.000001 0.011649
vn 0.999932 0.000001 0.011649
vn 0.999932 0.000000 0.011648
vn 0.999932 0.000000 0.011648
vn 0.999932 0.000000 0.011648
vn 0.999932 0.000000 0.011648
vn -0.999932 -0.000000 -0.011649
vn -0.999932 -0.000000 -0.011649
vn -0.999932 -0.000000 -0.011649
vn -0.999932 -0.000000 -0.011649
vn -0.999932 0.000000 -0.011649
vn -0.999932 0.000000 -0.011649
vn -0.999932 0.000000 -0.011649
vn -0.999932 0.000000 -0.011649
vn -0.999932 0.000000 -0.011649
vn -0.999932 0.000000 -0.011649
vn -0.999932 0.000000 -0.011649
vn -0.999932 0.000000 -0.011649
vn 0.999932 0.000001 0.011649
vn 0.999932 0.000001 0.011649
vn 0.999932 0.000001 0.011649
vn 0.999932 0.000001 0.011649
vn 0.999932 0.000000 0.011647
vn 0.999932 0.000000 0.011647
vn 0.999932 0.000000 0.011647
vn 0.999932 0.000000 0.011647
vn 0.999932 0.000000 0.011647
vn 0.999932 0.000000 0.011647
vn 0.999932 0.000000 0.011647
vn 0.999932 0.000000 0.011647
vn -0.999932 0.000000 -0.011648
vn -0.999932 0.000000 -0.011648
vn -0.999932 0.000000 -0.011648
vn -0.999932 0.000000 -0.011648
vn -0.999932 -0.000001 -0.011649
vn -0.999932 -0.000001 -0.011649
vn -0.999932 -0.000001 -0.011649
vn -0.999932 -0.000001 -0.011649
vn -0.999932 0.000000 -0.011649
vn -0.999932 0.000000 -0.011649
vn -0.999932 0.000000 -0.011649
vn -0.999932 0.000000 -0.011649
vn 0.999932 0.000000 0.011647
vn 0.999932 0.000000 0.011647
vn 0.999932 0.000000 0.011647
vn 0.999932 0.000000 0.011647
vn 0.999932 0.000001 0.011649
vn 0.999932 0.000001 0.011649
vn 0.999932 0.000001 0.011649
vn 0.999932 0.000001 0.011649
vn 0.999932 0.000000 0.011648
vn 0.999932 0.000000 0.011648
vn 0.999932 0.000000 0.011648
vn 0.999932 0.000000 0.011648
vn -0.999932 -0.000000 -0.011649
vn -0.999932 -0.000000 -0.011649
vn -0.999932 -0.000000 -0.011649
vn -0.999932 -0.000000 -0.011649
vn -0.999932 0.000000 -0.011649
vn -0.999932 0.000000 -0.011649
vn -0.999932 0.000000 -0.011649
vn -0.999932 0.000000 -0.011649
vn -0.999932 0.000000 -0.011649
vn -0.999932 0.000000 -0.011649
vn -0.999932 0.000000 -0.011649
vn -0.999932 0.000000 -0.011649
vn 0.999932 0.000001 0.011649
vn 0.999932 0.000001 0.011649
vn 0.999932 0.000001 0.011649
vn 0.999932 0.000001 0.011649
vn 0.999932 0.000000 0.011647
vn 0.999932 0.000000 0.011647
vn 0.999932 0.000000 0.011647
vn 0.999932 0.000000 0.011647
vn 0.999932 0.000000 0.011647
vn 0.999932 0.000000 0.011647
vn 0.999932 0.000000 0.011647
vn 0.999932 0.000000 0.011647
vn -0.999932 0.000000 -0.011649
vn -0.999932 0.000000 -0.011649
vn -0.999932 0.000000 -0.011649
vn -0.999932 0.000000 -0.011649
vn -0.999932 -0.000001 -0.011649
vn -0.999932 -0.000001 -0.011649
vn -0.999932 -0.000001 -0.011649
vn -0.999932 -0.000001 -0.011649
vn -0.999932 0.000000 -0.011649
vn -0.999932 0.000000 -0.011649
vn -0.999932 0.000000 -0.011649
vn -0.999932 0.000000 -0.011649
vn -0.011649 0.000000 0.999932
vn -0.011649 0.000000 0.999932
vn -0.011649 0.000000 0.999932
vn -0.011649 0.000000 0.999932
vn 0.011649 0.000000 -0.999932
vn 0.011649 0.000000 -0.999932
vn 0.011649 0.000000 -0.999932
vn 0.011649 0.000000 -0.999932
vn -0.000000 1.000000 0.000000
vn -0.000000 1.000000 0.000000
vn -0.000000 1.000000 0.000000
vn -0.000000 1.000000 0.000000
vn -0.011649 0.000000 0.999932
vn -0.011649 0.000000 0.999932
vn -0.011649 0.000000 0.999932
vn -0.011649 0.000000 0.999932
vn 0.000000 -1.000000 -0.000000
vn 0.000000 -1.000000 -0.000000
vn 0.000000 -1.000000 -0.000000
vn 0.000000 -1.000000 -0.000000
vn 0.011649 0.000000 -0.999932
vn 0.011649 0.000000 -0.999932
vn 0.011649 0.000000 -0.999932
vn 0.011649 0.000000 -0.999932
vn -0.011649 0.000000 0.999932
vn -0.011649 0.000000 0.999932
vn -0.011649 0.000000 0.999932
vn -0.011649 0.000000 0.999932
vn 0.011649 0.000000 -0.999932
vn 0.011649 0.000000 -0.999932
vn 0.011649 0.000000 -0.999932
vn 0.011649 0.000000 -0.999932
vn -0.000000 1.000000 0.000000
vn -0.000000 1.000000 0.000000
vn -0.000000 1.000000 0.000000
vn -0.000000 1.000000 0.000000
vn -0.011649 0.000000 0.999932
vn -0.011649 0.000000 0.999932
vn -0.011649 0.000000 0.999932
vn -0.011649 0.000000 0.999932
vn 0.000000 -1.000000 -0.000000
vn 0.000000 -1.000000 -0.000000
vn 0.000000 -1.000000 -0.000000
vn 0.000000 -1.000000 -0.000000
vn 0.011649 0.000001 -0.999932
vn 0.011649 0.000001 -0.999932
vn 0.011649 0.000001 -0.999932
vn 0.011649 0.000001 -0.999932
vn -0.011649 -0.000001 0.999932
vn -0.011649 -0.000001 0.999932
vn -0.011649 -0.000001 0.999932
vn -0.011649 -0.000001 0.999932
vn 0.011649 0.000000 -0.999932
vn 0.011649 0.000000 -0.999932
vn 0.011649 0.000000 -0.999932
vn 0.011649 0.000000 -0.999932
vn -0.000001 1.000000 0.000000
vn -0.000001 1.000000 0.000000
vn -0.000001 1.000000 0.000000
vn -0.000001 1.000000 0.000000
vn 0.007675 0.752293 -0.658784
vn 0.007675 0.752293 -0.658784
vn 0.007675 0.752293 -0.658784
vn 0.007675 0.752293 -0.658784
vn -0.007675 0.752293 0.658784
vn -0.007675 0.752293 0.658784
vn -0.007675 0.752293 0.658784
vn -0.007675 0.752293 0.658784
vn 0.999932 0.000000 0.011647
vn 0.999932 0.000000 0.011647
vn 0.999932 0.000000 0.011647
vn 0.999932 0.000000 0.011647
vn -0.999932 0.000000 -0.011649
vn -0.999932 0.000000 -0.011649
vn -0.999932 0.000000 -0.011649
vn -0.999932 0.000000 -0.011649
vn -0.011649 0.000000 0.999932
vn -0.011649 0.000000 0.999932
vn -0.011649 0.000000 0.999932
vn -0.011649 0.000000 0.999932
vn 0.999932 0.000000 0.011648
vn 0.999932 0.000000 0.011648
vn 0.999932 0.000000 0.011648
vn 0.999932 0.000000 0.011648
vn -0.999932 0.000000 -0.011649
vn -0.999932 0.000000 -0.011649
vn -0.999932 0.000000 -0.011649
vn -0.999932 0.000000 -0.011649
vn 0.011649 0.000000 -0.999932
vn 0.011649 0.000000 -0.999932
vn 0.011649 0.000000 -0.999932
vn 0.011649 0.000000 -0.999932
vn 0.999932 0.000000 0.011647
vn 0.999932 0.000000 0.011647
vn 0.999932 0.000000 0.011647
vn 0.999932 0.000000 0.011647
vn -0.999932 0.000000 -0.011649
vn -0.999932 0.000000 -0.011649
vn -0.999932 0.000000 -0.011649
vn -0.999932 0.000000 -0.011649
vn 0.011649 0.000000 -0.999932
vn 0.011649 0.000000 -0.999932
vn 0.011649 0.000000 -0.999932
vn 0.011649 0.000000 -0.999932
vn -0.999932 0.000000 -0.011649
vn -0.999932 0.000000 -0.011649
vn -0.999932 0.000000 -0.011649
vn -0.999932 0.000000 -0.011649
vn 0.999932 0.000000 0.011647
vn 0.999932 0.000000 0.011647
vn 0.999932 0.000000 0.011647
vn 0.999932 0.000000 0.011647
vn -0.011649 0.000000 0.999932
vn -0.011649 0.000000 0.999932
vn -0.011649 0.000000 0.999932
vn -0.011649 0.000000 0.999932
s off
g polySurface58 shelf_table:polySurface489
usemtl standardSurface3SG
f 5/85/1 6/86/2 7/87/3 8/88/4
f 8/1/5 7/2/6 9/3/7 10/4/8
f 7/109/9 6/110/10 11/111/11 9/112/12
f 12/43/13 11/44/14 6/45/15 5/46/16
f 5/131/17 8/132/18 10/133/19 12/134/20
f 9/112/21 11/111/22 13/113/23 14/114/24
f 12/134/25 10/133/26 15/135/27 16/136/28
f 14/114/29 13/113/30 19/115/31 17/116/32
f 16/136/33 15/135/34 18/137/35 20/138/36
f 17/116/37 19/115/38 21/117/39 22/118/40
f 20/138/41 18/137/42 23/139/43 24/140/44
f 23/17/45 22/15/46 25/19/47 26/20/48
f 22/118/49 21/117/50 27/119/51 25/120/52
f 28/61/53 27/62/54 21/59/55 24/57/56
f 24/140/57 23/139/58 26/141/59 28/142/60
f 25/120/61 27/119/62 29/121/63 30/122/64
f 28/142/65 26/141/66 31/143/67 32/144/68
f 30/122/69 29/121/70 35/123/71 33/124/72
f 32/144/73 31/143/74 34/145/75 36/146/76
f 33/124/77 35/123/78 37/125/79 38/126/80
f 36/146/81 34/145/82 39/147/83 40/148/84
f 39/33/85 38/31/86 41/35/87 42/36/88
f 38/126/89 37/125/90 43/127/91 41/128/92
f 44/77/93 43/78/94 37/75/95 40/73/96
f 40/148/97 39/147/98 42/149/99 44/150/100
f 41/128/101 43/127/102 3/129/103 2/130/104
f 44/150/105 42/149/106 1/151/107 4/152/108
f 10/4/109 9/3/110 45/5/111 46/6/112
f 9/3/113 14/7/114 47/8/115 45/5/116
f 15/9/117 10/4/118 46/6/119 48/10/120
f 13/51/121 11/44/122 51/48/123 49/52/124
f 11/44/125 12/43/126 52/47/127 51/48/128
f 12/43/129 16/49/130 50/50/131 52/47/132
f 17/11/133 22/15/134 55/16/135 53/12/136
f 22/15/137 23/17/138 56/18/139 55/16/140
f 23/17/141 18/14/142 54/13/143 56/18/144
f 24/57/145 21/59/146 57/60/147 58/58/148
f 21/59/149 19/56/150 59/55/151 57/60/152
f 20/53/153 24/57/154 58/58/155 60/54/156
f 26/20/157 25/19/158 61/21/159 62/22/160
f 25/19/161 30/23/162 63/24/163 61/21/164
f 31/25/165 26/20/166 62/22/167 64/26/168
f 29/67/169 27/62/170 67/64/171 65/68/172
f 27/62/173 28/61/174 68/63/175 67/64/176
f 28/61/177 32/65/178 66/66/179 68/63/180
f 33/27/181 38/31/182 71/32/183 69/28/184
f 38/31/185 39/33/186 72/34/187 71/32/188
f 39/33/189 34/30/190 70/29/191 72/34/192
f 40/73/193 37/75/194 73/76/195 74/74/196
f 37/75/197 35/72/198 75/71/199 73/76/200
f 36/69/201 40/73/202 74/74/203 76/70/204
f 42/36/205 41/35/206 77/37/207 78/38/208
f 41/35/209 2/39/210 79/40/211 77/37/212
f 1/41/213 42/36/214 78/38/215 80/42/216
f 3/83/217 43/78/218 83/80/219 81/84/220
f 43/78/221 44/77/222 84/79/223 83/80/224
f 44/77/225 4/81/226 82/82/227 84/79/228
f 77/153/229 79/154/230 81/155/231 83/156/232
f 80/159/233 78/160/234 84/161/235 82/162/236
f 78/89/237 77/90/238 83/91/239 84/92/240
f 69/165/241 71/166/242 73/167/243 75/168/244
f 71/93/245 72/94/246 74/95/247 73/96/248
f 72/173/249 70/174/250 76/175/251 74/176/252
f 61/171/253 63/170/254 65/169/255 67/172/256
f 64/177/257 62/179/258 68/180/259 66/178/260
f 62/97/261 61/98/262 67/99/263 68/100/264
f 53/181/265 55/182/266 57/183/267 59/184/268
f 55/101/269 56/102/270 58/103/271 57/104/272
f 56/189/273 54/190/274 60/191/275 58/192/276
f 45/187/277 47/186/278 49/185/279 51/188/280
f 48/193/281 46/195/282 52/196/283 50/194/284
f 46/105/285 45/106/286 51/107/287 52/108/288
f 1/163/289 80/159/290 82/162/291 4/164/292
f 2/157/293 3/158/294 81/155/295 79/154/296
f 63/24/297 30/23/298 33/27/299 69/28/300
f 29/67/301 65/68/302 75/71/303 35/72/304
f 69/165/305 75/168/306 65/169/307 63/170/308
f 31/25/309 64/26/310 70/29/311 34/30/312
f 66/66/313 32/65/314 36/69/315 76/70/316
f 76/175/317 70/174/318 64/177/319 66/178/320
f 15/9/321 48/10/322 54/13/323 18/14/324
f 50/50/325 16/49/326 20/53/327 60/54/328
f 60/191/329 54/190/330 48/193/331 50/194/332
f 13/51/333 49/52/334 59/55/335 19/56/336
f 47/8/337 14/7/338 17/11/339 53/12/340
f 53/181/341 59/184/342 49/185/343 47/186/344
