# This file uses centimeters as units for non-parametric coordinates.

mtllib ingredient1st.mtl
g default
v 2.253002 3.758860 1.934381
v 1.317505 3.750252 2.007641
v 1.310823 4.460107 2.005735
v 2.246319 4.468717 1.932475
v 1.358608 3.764715 2.089036
v 1.268593 3.700694 2.045023
v 2.308033 3.710260 1.963622
v 2.224812 3.772686 2.021202
v 1.352469 4.416867 2.087285
v 1.261095 4.497110 2.042884
v 2.218672 4.424839 2.019450
v 2.300536 4.506675 1.961483
v 1.264517 3.709604 1.994022
v 1.257020 4.506019 1.991883
v 2.296460 4.515586 1.910482
v 2.303957 3.719170 1.912619
v 1.567480 3.934032 2.104990
v 2.017907 3.938178 2.069716
v 2.015027 4.244097 2.068894
v 1.564600 4.239952 2.104168
v 1.316082 3.753362 1.989835
v 2.251578 3.761971 1.916573
v 1.309400 4.463218 1.987928
v 2.244896 4.471827 1.914667
vt 0.400082 0.484839
vt 0.423550 0.488057
vt 0.311719 0.834868
vt 0.288250 0.831649
vt 0.581390 0.831649
vt 0.557920 0.834868
vt 0.446089 0.488057
vt 0.469558 0.484838
vt 0.521260 0.807272
vt 0.429685 0.523283
vt 0.068431 0.484839
vt 0.168108 0.793956
vt 0.159914 0.795080
vt 0.060237 0.485962
vt 0.174243 0.793956
vt 0.273920 0.484839
vt 0.282115 0.485962
vt 0.182437 0.795080
vt 0.777293 0.479281
vt 0.753824 0.477417
vt 0.790634 0.001828
vt 0.814103 0.003693
vt 0.723299 0.435609
vt 0.753974 0.039284
vt 0.820747 0.003693
vt 0.844216 0.001828
vt 0.881026 0.477417
vt 0.857557 0.479282
vt 0.676306 0.485490
vt 0.643177 0.913519
vt 0.634983 0.912868
vt 0.668111 0.484838
vt 0.620653 0.913519
vt 0.587525 0.485489
vt 0.595719 0.484838
vt 0.628847 0.912868
vt 0.998008 0.484838
vt 0.991558 0.912868
vt 0.682441 0.915926
vt 0.688890 0.487896
vt 0.043190 0.436231
vt 0.009158 0.477417
vt 0.001992 0.001828
vt 0.037218 0.039905
vt 0.327179 0.439040
vt 0.355969 0.480847
vt 0.116101 0.134573
vt 0.119206 0.340663
vt 0.252423 0.341981
vt 0.321207 0.042715
vt 0.249318 0.135891
vt 0.716720 0.001828
vt 0.709554 0.477417
vt 0.691065 0.453823
vt 0.697515 0.025794
vt 0.362743 0.480847
vt 0.381948 0.456881
vt 0.369909 0.005258
vt 0.388398 0.028851
vn -0.078042 -0.003411 -0.996944
vn -0.078042 -0.003411 -0.996944
vn -0.078042 -0.003411 -0.996944
vn -0.078042 -0.003411 -0.996944
vn 0.066548 -0.627120 0.776075
vn 0.066548 -0.627120 0.776075
vn 0.066548 -0.627120 0.776075
vn 0.066548 -0.627120 0.776075
vn -0.438275 -0.001712 0.898839
vn -0.438275 -0.001712 0.898839
vn -0.438275 -0.001712 0.898839
vn -0.438275 -0.001712 0.898839
vn 0.061032 0.535571 0.842282
vn 0.061032 0.535571 0.842282
vn 0.061032 0.535571 0.842282
vn 0.061032 0.535571 0.842282
vn 0.572812 0.007593 0.819652
vn 0.572812 0.007593 0.819652
vn 0.572812 0.007593 0.819652
vn 0.572812 0.007593 0.819652
vn -0.996907 -0.009174 0.078058
vn -0.996907 -0.009174 0.078058
vn -0.996907 -0.009174 0.078058
vn -0.996907 -0.009174 0.078058
vn 0.004383 0.985131 0.171748
vn 0.004383 0.985131 0.171748
vn 0.004383 0.985131 0.171748
vn 0.004383 0.985131 0.171748
vn 0.996905 0.009175 -0.078075
vn 0.996905 0.009175 -0.078075
vn 0.996905 0.009175 -0.078075
vn 0.996905 0.009175 -0.078075
vn -0.004384 -0.985130 -0.171752
vn -0.004384 -0.985130 -0.171752
vn -0.004384 -0.985130 -0.171752
vn -0.004384 -0.985130 -0.171752
vn 0.029355 -0.071401 0.997016
vn 0.127506 -0.070498 0.989329
vn 0.125638 0.075383 0.989208
vn 0.028560 0.074499 0.996812
vn -0.078044 -0.003412 -0.996944
vn -0.078037 -0.003412 -0.996945
vn -0.078038 -0.003411 -0.996945
vn -0.078043 -0.003411 -0.996944
vn -0.078037 -0.003412 -0.996945
vn -0.078037 -0.003413 -0.996945
vn -0.078037 -0.003413 -0.996945
vn -0.078038 -0.003411 -0.996945
vn -0.078037 -0.003413 -0.996945
vn -0.078043 -0.003413 -0.996944
vn -0.078043 -0.003413 -0.996944
vn -0.078037 -0.003413 -0.996945
vn -0.078043 -0.003413 -0.996944
vn -0.078044 -0.003412 -0.996944
vn -0.078043 -0.003411 -0.996944
vn -0.078043 -0.003413 -0.996944
vn 0.004383 0.985131 0.171751
vn 0.004383 0.985131 0.171751
vn 0.004383 0.985131 0.171751
vn 0.004383 0.985131 0.171751
vn 0.996906 0.009174 -0.078066
vn 0.996906 0.009174 -0.078066
vn 0.996906 0.009174 -0.078066
vn 0.996906 0.009174 -0.078066
vn -0.004384 -0.985134 -0.171732
vn -0.004384 -0.985134 -0.171732
vn -0.004384 -0.985134 -0.171732
vn -0.004384 -0.985134 -0.171732
vn -0.996904 -0.009174 0.078087
vn -0.996904 -0.009174 0.078087
vn -0.996904 -0.009174 0.078087
vn -0.996904 -0.009174 0.078087
vn -0.006166 -0.086263 0.996253
vn 0.162741 -0.084709 0.983026
vn 0.127506 -0.070498 0.989329
vn 0.029355 -0.071401 0.997016
vn 0.162741 -0.084709 0.983026
vn 0.155301 0.094032 0.983382
vn 0.125638 0.075383 0.989208
vn 0.127506 -0.070498 0.989329
vn 0.155301 0.094032 0.983382
vn -0.002032 0.092583 0.995703
vn 0.028560 0.074499 0.996812
vn 0.125638 0.075383 0.989208
vn -0.002032 0.092583 0.995703
vn -0.006166 -0.086263 0.996253
vn 0.029355 -0.071401 0.997016
vn 0.028560 0.074499 0.996812
s off
g polySurface646 front_desk:polySurface290
usemtl standardSurface10SG
f 1/37/1 2/38/2 3/39/3 4/40/4
f 5/41/5 6/42/6 7/43/7 8/44/8
f 6/42/9 5/41/10 9/45/11 10/46/12
f 10/20/13 9/23/14 11/24/15 12/21/16
f 12/6/17 11/9/18 8/10/19 7/7/20
f 13/1/21 6/2/22 10/3/23 14/4/24
f 14/19/25 10/20/26 12/21/27 15/22/28
f 15/5/29 12/6/30 7/7/31 16/8/32
f 16/25/33 7/26/34 6/27/35 13/28/36
f 17/48/37 18/47/38 19/51/39 20/49/40
f 16/52/41 13/53/42 21/54/43 22/55/44
f 13/53/45 14/56/46 23/57/47 21/54/48
f 14/56/49 15/58/50 24/59/51 23/57/52
f 15/58/53 16/52/54 22/55/55 24/59/56
f 22/29/57 21/30/58 2/31/59 1/32/60
f 21/11/61 23/12/62 3/13/63 2/14/64
f 23/33/65 24/34/66 4/35/67 3/36/68
f 24/15/69 22/16/70 1/17/71 4/18/72
f 5/41/73 8/44/74 18/47/75 17/48/76
f 8/44/77 11/50/78 19/51/79 18/47/80
f 11/50/81 9/45/82 20/49/83 19/51/84
f 9/45/85 5/41/86 17/48/87 20/49/88
