# This file uses centimeters as units for non-parametric coordinates.

mtllib cheese.mtl
g default
v -101.383237 5.000000 17.000004
v -101.383237 5.000000 13.000004
v -81.383237 5.000000 -2.999996
v -81.383237 5.000000 2.000004
v -83.625243 5.000000 2.355103
v -84.533421 5.000000 3.605104
v -82.155780 5.000000 1.877645
v -84.533421 5.000000 5.150189
v -83.625243 5.000000 6.400189
v -82.155780 5.000000 6.877646
v -81.383237 5.000000 6.755287
v -81.383237 5.000000 17.000004
v -99.765202 5.000000 12.175574
v -100.765202 5.000000 12.902117
v -99.383237 5.000000 11.000004
v -99.765202 5.000000 9.824432
v -94.883237 5.000000 -2.999996
v -100.765202 5.000000 9.097890
v -101.383237 5.000000 9.000003
v -95.169711 5.000000 -2.118319
v -95.919711 5.000000 -1.573411
v -96.846763 5.000000 -1.573411
v -101.383237 5.000000 -2.999996
v -97.596763 5.000000 -2.118319
v -97.883237 5.000000 -2.999996
v -101.383237 4.000000 17.000004
v -101.383237 4.000000 13.000004
v -81.383237 4.000000 -2.999996
v -81.383237 4.000000 2.000004
v -83.625243 4.000000 2.355103
v -84.533421 4.000000 3.605104
v -82.155780 4.000000 1.877645
v -84.533421 4.000000 5.150189
v -83.625243 4.000000 6.400189
v -82.155780 4.000000 6.877646
v -81.383237 4.000000 6.755287
v -81.383237 4.000000 17.000004
v -99.765202 4.000000 12.175574
v -100.765202 4.000000 12.902117
v -99.383237 4.000000 11.000004
v -99.765202 4.000000 9.824432
v -94.883237 4.000000 -2.999996
v -100.765202 4.000000 9.097890
v -101.383237 4.000000 9.000003
v -95.169711 4.000000 -2.118319
v -95.919711 4.000000 -1.573411
v -96.846763 4.000000 -1.573411
v -101.383237 4.000000 -2.999996
v -97.596763 4.000000 -2.118319
v -97.883237 4.000000 -2.999996
vt 0.929448 0.991992
vt 0.861059 0.991992
vt 0.861059 0.968721
vt 0.929448 0.968721
vt 0.360059 0.899830
vt 0.965402 0.991992
vt 0.034597 0.991992
vt 0.868942 0.704807
vt 0.034597 0.968721
vt 0.965402 0.968721
vt 0.965402 0.991992
vt 0.899830 0.699915
vt 0.899830 0.899830
vt 0.348605 0.864578
vt 0.965402 0.968721
vt 0.063361 0.991992
vt 0.109901 0.991992
vt 0.109901 0.968721
vt 0.063361 0.968721
vt 0.337109 0.991992
vt 0.965402 0.991992
vt 0.965402 0.968721
vt 0.337109 0.968721
vt 0.288871 0.991992
vt 0.323777 0.991992
vt 0.323777 0.968721
vt 0.288871 0.968721
vt 0.318618 0.842791
vt 0.245726 0.991992
vt 0.245726 0.968721
vt 0.034597 0.991992
vt 0.034597 0.991992
vt 0.034597 0.968721
vt 0.034597 0.968721
vt 0.210821 0.991992
vt 0.210821 0.968721
vt 0.197488 0.991992
vt 0.773876 0.635738
vt 0.197488 0.968721
vt 0.034597 0.991992
vt 0.034597 0.968721
vt 0.965402 0.991992
vt 0.965402 0.968721
vt 0.818792 0.991992
vt 0.818792 0.968721
vt 0.818792 0.991992
vt 0.818792 0.968721
vt 0.861059 0.991992
vt 0.861059 0.968721
vt 0.929448 0.991992
vt 0.810188 0.685717
vt 0.281552 0.842791
vt 0.124880 0.416120
vt 0.251564 0.864578
vt 0.929448 0.968721
vt 0.100170 0.420034
vt 0.240110 0.899830
vt 0.100170 0.899830
vt 0.127678 0.991992
vt 0.899830 0.100170
vt 0.124880 0.264016
vt 0.127678 0.968721
vt 0.100170 0.260102
vt 0.100170 0.100170
vt 0.180136 0.340068
vt 0.164863 0.293065
vt 0.868942 0.504892
vt 0.810188 0.523982
vt 0.164863 0.387071
vt 0.773876 0.573961
vt 0.899830 0.509784
vt 0.360059 0.899830
vt 0.899830 0.899830
vt 0.899830 0.699915
vt 0.868942 0.704807
vt 0.109901 0.991992
vt 0.348605 0.864578
vt 0.109901 0.968721
vt 0.063361 0.991992
vt 0.810188 0.685717
vt 0.773876 0.635738
vt 0.318618 0.842791
vt 0.124880 0.416120
vt 0.281552 0.842791
vt 0.063361 0.968721
vt 0.100170 0.420034
vt 0.251564 0.864578
vt 0.100170 0.899830
vt 0.240110 0.899830
vt 0.899830 0.100170
vt 0.100170 0.100170
vt 0.100170 0.260102
vt 0.124880 0.264016
vt 0.180136 0.340068
vt 0.810188 0.523982
vt 0.868942 0.504892
vt 0.164863 0.293065
vt 0.164863 0.387071
vt 0.773876 0.573961
vt 0.899830 0.509784
vn 0.156435 0.000000 0.987688
vn 0.587785 0.000000 0.809017
vn 0.587785 0.000000 0.809017
vn 0.156435 0.000000 0.987688
vn 0.000000 0.000000 1.000000
vn 0.000000 0.000000 1.000000
vn 0.000000 0.000000 1.000000
vn 0.000000 0.000000 1.000000
vn 1.000000 0.000000 0.000000
vn 1.000000 0.000000 0.000000
vn 1.000000 0.000000 0.000000
vn 1.000000 0.000000 0.000000
vn -0.453990 0.000000 -0.891007
vn -0.809017 0.000000 -0.587785
vn -0.809017 0.000000 -0.587785
vn -0.453990 0.000000 -0.891007
vn 0.000000 0.000000 -1.000000
vn 0.000000 0.000000 -1.000000
vn 0.000000 0.000000 -1.000000
vn 0.000000 0.000000 -1.000000
vn -0.309017 0.000000 -0.951056
vn -0.809017 0.000000 -0.587785
vn -0.809017 0.000000 -0.587785
vn -0.309017 0.000000 -0.951056
vn 0.309017 0.000000 -0.951056
vn -0.309017 0.000000 -0.951056
vn -0.309017 0.000000 -0.951056
vn 0.309017 0.000000 -0.951056
vn -1.000000 0.000000 0.000000
vn -1.000000 0.000000 0.000000
vn -1.000000 0.000000 0.000000
vn -1.000000 0.000000 0.000000
vn 0.809017 0.000000 -0.587785
vn 0.309017 0.000000 -0.951056
vn 0.309017 0.000000 -0.951056
vn 0.809017 0.000000 -0.587785
vn 0.951057 0.000000 -0.309017
vn 0.809017 0.000000 -0.587785
vn 0.809017 0.000000 -0.587785
vn 0.951057 0.000000 -0.309017
vn 0.000000 1.000000 -0.000000
vn 0.000000 1.000000 -0.000000
vn 0.000000 1.000000 0.000000
vn 0.000000 1.000000 0.000000
vn 0.000000 1.000000 -0.000000
vn 0.000000 1.000000 -0.000000
vn 0.000000 1.000000 -0.000000
vn 0.000000 1.000000 -0.000000
vn 0.000000 1.000000 -0.000000
vn 0.000000 1.000000 0.000000
vn 0.000000 1.000000 0.000000
vn 0.000000 1.000000 -0.000000
vn 0.000000 1.000000 0.000000
vn 0.000000 1.000000 0.000000
vn 0.000000 1.000000 0.000000
vn 0.000000 1.000000 0.000000
vn 0.000000 1.000000 0.000000
vn 0.000000 1.000000 0.000000
vn 0.000000 1.000000 0.000000
vn 0.000000 1.000000 0.000000
vn 0.000000 1.000000 0.000000
vn 0.000000 1.000000 0.000000
vn 0.000000 1.000000 0.000000
vn 0.000000 1.000000 0.000000
vn 0.000000 1.000000 0.000000
vn 0.000000 1.000000 0.000000
vn 0.000000 1.000000 0.000000
vn 0.000000 1.000000 0.000000
vn 0.000000 1.000000 0.000000
vn 0.000000 1.000000 0.000000
vn 0.000000 1.000000 0.000000
vn 0.000000 1.000000 0.000000
vn 0.000000 1.000000 0.000000
vn 0.000000 1.000000 0.000000
vn 0.000000 1.000000 0.000000
vn 0.000000 1.000000 -0.000000
vn -0.809017 0.000000 -0.587785
vn -0.951057 0.000000 -0.309017
vn -0.951057 0.000000 -0.309017
vn -0.809017 0.000000 -0.587785
vn 0.000000 1.000000 -0.000000
vn 0.000000 1.000000 -0.000000
vn 0.000000 1.000000 -0.000000
vn 0.000000 1.000000 -0.000000
vn 0.000000 1.000000 0.000000
vn 0.000000 1.000000 0.000000
vn 0.000000 1.000000 0.000000
vn 0.000000 1.000000 0.000000
vn 0.000000 1.000000 0.000000
vn 0.000000 1.000000 0.000000
vn 0.000000 1.000000 0.000000
vn 0.000000 1.000000 0.000000
vn 0.000000 1.000000 0.000000
vn 0.000000 0.000000 -1.000000
vn 0.000000 0.000000 -1.000000
vn 0.000000 0.000000 -1.000000
vn 0.000000 0.000000 -1.000000
vn 0.000000 -1.000000 0.000000
vn 0.000000 -1.000000 0.000000
vn 0.000000 -1.000000 0.000000
vn 0.000000 -1.000000 0.000000
vn 0.000000 -1.000000 0.000000
vn 0.000000 -1.000000 0.000000
vn 0.000000 -1.000000 0.000000
vn 0.000000 -1.000000 0.000000
vn 0.000000 -1.000000 0.000000
vn 0.000000 -1.000000 0.000000
vn 0.000000 -1.000000 0.000000
vn 0.000000 -1.000000 0.000000
vn 0.000000 -1.000000 0.000000
vn 0.000000 -1.000000 0.000000
vn 0.000000 -1.000000 0.000000
vn 0.000000 -1.000000 0.000000
vn 0.000000 -1.000000 0.000000
vn 0.000000 -1.000000 0.000000
vn 0.000000 -1.000000 0.000000
vn 0.000000 -1.000000 0.000000
vn 0.000000 -1.000000 0.000000
vn 0.000000 -1.000000 0.000000
vn 0.000000 -1.000000 0.000000
vn 0.000000 -1.000000 0.000000
vn 0.000000 -1.000000 0.000000
vn 0.000000 -1.000000 0.000000
vn 0.000000 -1.000000 0.000000
vn 0.000000 -1.000000 0.000000
vn 0.000000 -1.000000 0.000000
vn 0.000000 -1.000000 0.000000
vn 0.000000 -1.000000 0.000000
vn 0.000000 -1.000000 0.000000
vn 0.000000 -1.000000 0.000000
vn 0.000000 -1.000000 0.000000
vn 0.000000 -1.000000 0.000000
vn 0.000000 -1.000000 0.000000
vn 0.000000 -1.000000 0.000000
vn 0.000000 -1.000000 0.000000
vn 0.000000 -1.000000 0.000000
vn 0.000000 -1.000000 0.000000
vn 0.000000 -1.000000 0.000000
vn 0.000000 -1.000000 0.000000
vn 0.000000 -1.000000 0.000000
vn 0.000000 -1.000000 0.000000
vn 0.000000 -1.000000 0.000000
vn 0.000000 -1.000000 0.000000
vn 0.000000 -1.000000 0.000000
vn 0.000000 -1.000000 0.000000
vn 0.000000 -1.000000 0.000000
vn -1.000000 0.000000 0.000000
vn -1.000000 0.000000 0.000000
vn -1.000000 0.000000 0.000000
vn -1.000000 0.000000 0.000000
vn 1.000000 0.000000 0.000000
vn 1.000000 0.000000 0.000000
vn 1.000000 0.000000 0.000000
vn 1.000000 0.000000 0.000000
vn 0.951057 0.000000 0.309017
vn 0.951057 0.000000 0.309017
vn 0.587785 0.000000 0.809017
vn 0.587785 0.000000 0.809017
vn 0.951057 0.000000 -0.309017
vn 0.951057 0.000000 -0.309017
vn 0.951057 0.000000 0.309017
vn 0.951057 0.000000 0.309017
vn 0.587785 0.000000 -0.809017
vn 0.587785 0.000000 -0.809017
vn 0.951057 0.000000 -0.309017
vn 0.951057 0.000000 -0.309017
vn 0.156434 0.000000 -0.987688
vn 0.156434 0.000000 -0.987688
vn 0.587785 0.000000 -0.809017
vn 0.587785 0.000000 -0.809017
vn -0.156435 0.000000 -0.987688
vn -0.156435 0.000000 -0.987688
vn 0.156434 0.000000 -0.987688
vn 0.156434 0.000000 -0.987688
vn -1.000000 0.000000 0.000000
vn -1.000000 0.000000 0.000000
vn -0.809017 0.000000 -0.587785
vn -0.809017 0.000000 -0.587785
vn -0.809017 0.000000 0.587785
vn -0.809017 0.000000 0.587785
vn -1.000000 0.000000 0.000000
vn -1.000000 0.000000 0.000000
vn -0.453990 0.000000 0.891007
vn -0.453990 0.000000 0.891007
vn -0.809017 0.000000 0.587785
vn -0.809017 0.000000 0.587785
vn -0.156434 0.000000 0.987688
vn -0.156434 0.000000 0.987688
vn -0.453990 0.000000 0.891007
vn -0.453990 0.000000 0.891007
vn 0.156435 0.000000 0.987688
vn 0.156435 0.000000 0.987688
vn -0.156434 0.000000 0.987688
vn -0.156434 0.000000 0.987688
vn -0.453990 0.000000 -0.891007
vn -0.453990 0.000000 -0.891007
vn -0.156434 0.000000 -0.987688
vn -0.156434 0.000000 -0.987688
s off
g Cheese_Slice2 Burger_2 Burger_Meal
usemtl Cheese_Slice2SG
f 7/1/1 5/2/2 30/3/3 32/4/4
f 12/6/5 1/7/6 26/9/7 37/10/8
f 11/11/9 12/6/10 37/10/11 36/15/12
f 14/16/13 13/17/14 38/18/15 39/19/16
f 17/20/17 3/21/18 28/22/19 42/23/20
f 21/24/21 20/25/22 45/26/23 46/27/24
f 22/29/25 21/24/26 46/27/27 47/30/28
f 19/31/29 23/32/30 48/33/31 44/34/32
f 24/35/33 22/29/34 47/30/35 49/36/36
f 25/37/37 24/35/38 49/36/39 50/39/40
f 17/5/41 7/8/42 4/12/43 3/13/44
f 20/14/45 21/28/46 6/38/47 5/51/48
f 21/28/49 22/52/50 18/53/51 6/38/52
f 22/52/53 24/54/54 19/56/55 18/53/56
f 24/54/57 25/57/58 23/58/59 19/56/60
f 12/60/61 14/61/62 2/63/63 1/64/64
f 15/65/65 13/66/66 10/67/67 9/68/68
f 16/69/69 15/65/70 9/68/71 8/70/72
f 18/53/73 16/69/74 8/70/75 6/38/76
f 20/25/77 17/20/78 42/23/79 45/26/80
f 20/14/81 5/51/82 7/8/83 17/5/84
f 14/61/85 12/60/86 13/66/87
f 11/71/88 10/67/89 12/60/90
f 13/66/91 12/60/92 10/67/93
f 23/32/94 25/37/95 50/39/96 48/33/97
f 42/72/98 28/73/99 29/74/100 32/75/101
f 45/77/102 30/80/103 31/81/104 46/82/105
f 46/82/106 31/81/107 43/83/108 47/84/109
f 47/84/110 43/83/111 44/86/112 49/87/113
f 49/87/114 44/86/115 48/88/116 50/89/117
f 37/90/118 26/91/119 27/92/120 39/93/121
f 40/94/122 34/95/123 35/96/124 38/97/125
f 41/98/126 33/99/127 34/95/128 40/94/129
f 43/83/130 31/81/131 33/99/132 41/98/133
f 45/77/134 42/72/135 32/75/136 30/80/137
f 39/93/138 38/97/139 37/90/140
f 36/100/141 37/90/142 35/96/143
f 38/97/144 35/96/145 37/90/146
f 2/40/147 27/41/148 26/9/149 1/7/150
f 4/42/151 29/43/152 28/22/153 3/21/154
f 6/44/155 31/45/156 30/3/157 5/2/158
f 8/46/159 33/47/160 31/45/161 6/44/162
f 9/48/163 34/49/164 33/47/165 8/46/166
f 10/50/167 35/55/168 34/49/169 9/48/170
f 11/11/171 36/15/172 35/55/173 10/50/174
f 15/59/175 40/62/176 38/18/177 13/17/178
f 16/76/179 41/78/180 40/62/181 15/59/182
f 18/79/183 43/85/184 41/78/185 16/76/186
f 19/31/187 44/34/188 43/85/189 18/79/190
f 7/1/191 32/4/192 29/43/193 4/42/194
f 14/16/195 39/19/196 27/41/197 2/40/198
