# This file uses centimeters as units for non-parametric coordinates.

mtllib box.mtl
g default
v -1.482621 0.336509 1.955585
v 5.127679 0.336509 1.955585
v -2.640934 2.429191 2.869954
v 6.285992 2.429191 2.869954
v -2.640934 2.429191 -2.869954
v 6.285992 2.429191 -2.869954
v -1.482621 0.336509 -1.955585
v 5.127679 0.336509 -1.955585
v -1.660553 -0.012802 2.151979
v 5.305611 -0.012802 2.151979
v 6.477801 2.235247 3.070845
v -2.832743 2.235247 3.070845
v -2.832743 2.235247 -3.070845
v 6.477801 2.235247 -3.070845
v 5.305611 -0.012802 -2.151979
v -1.660553 -0.012802 -2.151979
vt 0.543646 0.937508
vt 0.543646 0.654128
vt 0.691661 0.593628
vt 0.691661 0.998008
vt 0.704431 0.606855
vt 0.704431 0.984781
vt 0.376911 0.937508
vt 0.376911 0.654128
vt 0.524926 0.593628
vt 0.524926 0.998008
vt 0.537696 0.606855
vt 0.537696 0.984781
vt 0.233175 0.679089
vt 0.370961 0.618886
vt 0.370961 0.996812
vt 0.233175 0.936608
vt 0.089438 0.679090
vt 0.227224 0.618886
vt 0.227224 0.996812
vt 0.089438 0.936608
vt 0.629653 0.460657
vt 0.629653 0.001992
vt 0.913033 0.001992
vt 0.913033 0.460657
vt 0.967900 0.899762
vt 0.710382 0.899762
vt 0.710382 0.464528
vt 0.967900 0.464528
vt 0.001932 0.537836
vt 0.001932 0.079171
vt 0.149948 0.001992
vt 0.149948 0.615015
vt 0.162717 0.014621
vt 0.162717 0.602386
vt 0.183115 0.615015
vt 0.183115 0.001992
vt 0.331130 0.079171
vt 0.331130 0.537836
vt 0.170345 0.602386
vt 0.170345 0.014622
vt 0.476355 0.513492
vt 0.338569 0.589757
vt 0.338569 0.001992
vt 0.476355 0.078257
vt 0.621897 0.589757
vt 0.484111 0.513492
vt 0.484111 0.078258
vt 0.621897 0.001992
vn 0.000000 -0.378354 0.925661
vn 0.000000 -0.378354 0.925661
vn 0.000000 -0.378354 0.925661
vn 0.000000 -0.378354 0.925661
vn 0.000000 -0.378354 -0.925661
vn 0.000000 -0.378354 -0.925661
vn 0.000000 -0.378354 -0.925661
vn 0.000000 -0.378354 -0.925661
vn 0.000000 -1.000000 0.000000
vn 0.000000 -1.000000 0.000000
vn 0.000000 -1.000000 0.000000
vn 0.000000 -1.000000 0.000000
vn 0.886699 -0.462347 0.000000
vn 0.886699 -0.462347 0.000000
vn 0.886699 -0.462347 0.000000
vn 0.886699 -0.462347 0.000000
vn -0.886699 -0.462347 0.000000
vn -0.886699 -0.462347 0.000000
vn -0.886699 -0.462347 0.000000
vn -0.886699 -0.462347 0.000000
vn 0.000000 0.400385 -0.916347
vn 0.000000 0.400385 -0.916347
vn 0.000000 0.400385 -0.916347
vn 0.000000 0.400385 -0.916347
vn 0.000000 0.400385 0.916347
vn 0.000000 0.400385 0.916347
vn 0.000000 0.400385 0.916347
vn 0.000000 0.400385 0.916347
vn 0.000000 1.000000 0.000000
vn 0.000000 1.000000 0.000000
vn 0.000000 1.000000 0.000000
vn 0.000000 1.000000 0.000000
vn -0.874917 0.484272 0.000000
vn -0.874917 0.484272 0.000000
vn -0.874917 0.484272 0.000000
vn -0.874917 0.484272 0.000000
vn 0.874917 0.484272 0.000000
vn 0.874917 0.484272 0.000000
vn 0.874917 0.484272 0.000000
vn 0.874917 0.484272 0.000000
vn 0.000000 0.719437 0.694557
vn 0.000000 0.719437 0.694557
vn 0.000000 0.719437 0.694558
vn 0.000000 0.719437 0.694557
vn 0.000000 0.719437 -0.694557
vn 0.000000 0.719437 -0.694557
vn 0.000000 0.719437 -0.694557
vn 0.000000 0.719437 -0.694557
vn 0.711009 0.703183 0.000000
vn 0.711009 0.703183 0.000000
vn 0.711009 0.703183 0.000000
vn 0.711009 0.703183 0.000000
vn -0.711010 0.703182 0.000000
vn -0.711010 0.703182 0.000000
vn -0.711010 0.703182 0.000000
vn -0.711010 0.703182 0.000000
s off
g pCube1
usemtl standardSurface6SG
f 9/29/1 10/30/2 11/31/3 12/32/4
f 13/35/5 14/36/6 15/37/7 16/38/8
f 16/21/9 15/22/10 10/23/11 9/24/12
f 10/1/13 15/2/14 14/3/15 11/4/16
f 16/7/17 9/8/18 12/9/19 13/10/20
f 1/41/21 3/42/22 4/43/23 2/44/24
f 5/45/25 7/46/26 8/47/27 6/48/28
f 7/25/29 1/26/30 2/27/31 8/28/32
f 2/13/33 4/14/34 6/15/35 8/16/36
f 7/17/37 5/18/38 3/19/39 1/20/40
f 4/33/41 3/34/42 12/32/43 11/31/44
f 5/39/45 6/40/46 14/36/47 13/35/48
f 6/5/49 4/6/50 11/4/51 14/3/52
f 3/11/53 5/12/54 13/10/55 12/9/56
