# This file uses centimeters as units for non-parametric coordinates.

mtllib diamond_1.mtl
g default
v 14.782427 14.959691 19.368855
v 14.782427 12.339368 19.368855
v 18.911823 12.339364 19.368855
v 18.911823 14.959691 19.368855
v 14.782427 14.959691 17.147526
v 18.911823 14.959691 17.147526
v 10.653035 12.339374 14.926624
v 14.782427 12.339374 14.926624
v 18.911823 12.339374 14.926624
v 18.911823 11.948871 14.926624
v 10.653035 11.948871 14.926624
v 14.782427 3.000197 19.368855
v 14.782427 3.000198 14.926624
v 18.911823 3.000198 14.926624
v 18.911823 3.000197 19.368855
v 18.911823 12.339374 14.926624
v 10.653035 12.339374 14.926624
v 10.653035 12.339368 19.368855
v 10.653035 14.959691 19.368855
v 10.653035 14.959691 17.147526
v 11.072456 12.418554 16.024637
v 11.072456 14.398956 17.703173
v 14.782427 14.398956 17.703173
v 18.492401 14.398956 17.703173
v 18.492401 12.418554 16.024637
v 10.653035 11.948871 19.368855
v 10.653035 12.339368 19.368855
v 14.782427 11.948871 19.368855
v 18.911823 11.948867 19.368855
v 18.911823 12.339364 19.368855
v 18.911823 11.948867 19.368855
v 18.911823 11.948871 14.926624
v 18.911823 12.339374 14.926624
v 18.911823 12.339364 19.368855
v 10.653035 3.000197 19.368855
v 18.911823 11.948867 19.368855
v 10.653035 11.948871 19.368855
v 18.911823 11.948871 14.926624
v 14.782427 3.419619 14.686413
v 14.782427 11.529449 14.686417
v 18.492401 11.529449 14.686417
v 18.492401 3.419619 14.686413
v 10.653035 3.000198 14.926624
v 10.653035 11.948871 14.926624
v 18.911823 11.948871 14.926624
v 18.911823 11.948867 19.368855
v 18.911823 12.339374 14.926624
v 18.911823 12.339364 19.368855
v 14.782427 11.948871 14.926624
v 11.072456 11.529449 14.686417
v 11.072456 3.419619 14.686413
v 11.072456 14.639731 16.876339
v 11.072456 12.659328 15.197811
v 14.782427 14.639731 16.876339
v 18.492401 14.639731 16.876339
v 18.492401 12.659328 15.197811
v 18.492401 11.529449 14.926624
v 14.782427 11.529449 14.926624
v 18.492401 3.419619 14.926624
v 14.782427 3.419619 14.926624
v 11.072456 11.529449 14.926624
v 11.072456 3.419619 14.926624
v 14.782428 4.700297 14.686414
v 14.782428 10.248771 14.686416
v 17.320667 10.248771 14.686416
v 17.320667 4.700297 14.686414
v 12.244189 10.248771 14.686416
v 12.244189 4.700297 14.686414
v 17.211185 3.640756 14.686413
v 14.782428 3.640756 14.686413
v 14.782428 4.479160 14.686414
v 16.444103 4.479160 14.686414
v 12.353672 3.640756 14.686413
v 13.120754 4.479160 14.686414
v 17.211185 3.640756 15.257543
v 14.782428 3.640756 15.257543
v 14.782428 4.479160 15.257544
v 16.444103 4.479160 15.257544
v 12.353672 3.640756 15.257543
v 13.120754 4.479160 15.257544
vt 0.050631 0.622179
vt 0.050631 0.455213
vt 0.149118 0.538688
vt 0.149118 0.622179
vt 0.001992 0.793136
vt 0.001992 0.626170
vt 0.100479 0.626170
vt 0.100479 0.709661
vt 0.107430 0.793136
vt 0.107430 0.626170
vt 0.122108 0.626170
vt 0.122108 0.793136
vt 0.128869 0.793136
vt 0.128869 0.626170
vt 0.143546 0.626170
vt 0.143546 0.793136
vt 0.319866 0.001713
vt 0.486832 0.001713
vt 0.486832 0.338057
vt 0.319866 0.338057
vt 0.493323 0.001713
vt 0.660288 0.001713
vt 0.660288 0.338057
vt 0.493323 0.338057
vt 0.159357 0.641779
vt 0.233792 0.704868
vt 0.224743 0.735946
vt 0.150307 0.672856
vt 0.323444 0.795098
vt 0.249009 0.858187
vt 0.239959 0.827110
vt 0.314394 0.764021
vt 0.330809 0.646864
vt 0.330809 0.342049
vt 0.339837 0.342049
vt 0.339837 0.646864
vt 0.324673 0.455213
vt 0.324673 0.760029
vt 0.315645 0.760029
vt 0.315645 0.455213
vt 0.914533 0.497256
vt 0.831043 0.497256
vt 0.831043 0.342049
vt 0.914533 0.342049
vt 0.831043 0.652463
vt 0.914533 0.652463
vt 0.924726 0.357813
vt 0.924726 0.497256
vt 0.924726 0.636699
vt 0.998008 0.342049
vt 0.987815 0.357813
vt 0.998008 0.652463
vt 0.987815 0.636699
vt 0.956738 0.636699
vt 0.956738 0.357813
vt 0.893649 0.636699
vt 0.893649 0.497256
vt 0.893649 0.357813
vt 0.804094 0.497256
vt 0.637129 0.497256
vt 0.637129 0.342049
vt 0.804094 0.342049
vt 0.637129 0.652463
vt 0.804094 0.652463
vt 0.278432 0.734099
vt 0.278432 0.594656
vt 0.309510 0.594656
vt 0.309510 0.734099
vt 0.278432 0.455213
vt 0.309510 0.455213
vt 0.263268 0.594656
vt 0.263268 0.455213
vt 0.272297 0.455213
vt 0.272297 0.594656
vt 0.263268 0.734099
vt 0.272297 0.734099
vt 0.257133 0.455213
vt 0.257133 0.594656
vt 0.248105 0.594656
vt 0.248105 0.455213
vt 0.257133 0.734099
vt 0.248105 0.734099
vt 0.204322 0.455213
vt 0.204322 0.546501
vt 0.182855 0.546501
vt 0.182855 0.455213
vt 0.204322 0.637788
vt 0.182855 0.637788
vt 0.155253 0.546501
vt 0.155253 0.484045
vt 0.176720 0.484045
vt 0.176720 0.546501
vt 0.155253 0.455213
vt 0.176720 0.455213
vt 0.155253 0.608956
vt 0.176720 0.608956
vt 0.155253 0.637788
vt 0.176720 0.637788
vt 0.157199 0.451222
vt 0.157199 0.352735
vt 0.312406 0.352734
vt 0.312406 0.451222
vt 0.001992 0.352735
vt 0.001992 0.451222
vt 0.001992 0.352735
vt 0.312406 0.352734
vt 0.001992 0.338057
vt 0.157199 0.338057
vt 0.312406 0.338057
vt 0.001992 0.338057
vt 0.312406 0.338057
vt 0.001992 0.001713
vt 0.157199 0.001713
vt 0.312406 0.001713
vt 0.810230 0.652463
vt 0.810230 0.497256
vt 0.810230 0.342049
vt 0.824907 0.342049
vt 0.824907 0.652463
vt 0.485416 0.598729
vt 0.485416 0.390184
vt 0.580818 0.390184
vt 0.580818 0.598729
vt 0.390013 0.390184
vt 0.390013 0.598729
vt 0.485415 0.342049
vt 0.624858 0.342049
vt 0.624858 0.646864
vt 0.547871 0.607041
vt 0.485416 0.607041
vt 0.345973 0.342049
vt 0.422960 0.607041
vt 0.345973 0.646864
vt 0.576703 0.638553
vt 0.394128 0.638553
vt 0.485415 0.646864
vt 0.485416 0.638553
vt 0.630994 0.342049
vt 0.630994 0.497256
vt 0.630994 0.652463
vt 0.630994 0.652463
vt 0.630994 0.342049
vt 0.821987 0.001713
vt 0.977194 0.001713
vt 0.961430 0.017477
vt 0.821987 0.017477
vt 0.977194 0.338057
vt 0.961430 0.322293
vt 0.666780 0.001713
vt 0.682544 0.017477
vt 0.821987 0.338057
vt 0.821987 0.322293
vt 0.666780 0.338057
vt 0.682544 0.322293
vt 0.241969 0.455213
vt 0.241969 0.546501
vt 0.210457 0.546501
vt 0.210457 0.484045
vt 0.241969 0.637788
vt 0.210457 0.608956
vn 0.000000 -0.000000 1.000000
vn 0.000000 -0.000000 1.000000
vn 0.000000 -0.000000 1.000000
vn 0.000000 -0.000000 1.000000
vn 0.000000 1.000000 0.000000
vn 0.000000 1.000000 0.000000
vn 0.000000 1.000000 0.000000
vn 0.000000 1.000000 0.000000
vn 0.000000 0.000000 -1.000000
vn 0.000000 0.000000 -1.000000
vn 0.000000 0.000000 -1.000000
vn 0.000000 0.000000 -1.000000
vn 0.000000 0.000000 -1.000000
vn 0.000000 -1.000000 -0.000000
vn 0.000000 -1.000000 -0.000000
vn 0.000000 -1.000000 -0.000000
vn 0.000000 -1.000000 -0.000000
vn 1.000000 0.000000 0.000000
vn 1.000000 0.000000 0.000000
vn 1.000000 0.000000 0.000000
vn 1.000000 0.000000 0.000000
vn -1.000000 0.000000 0.000000
vn -1.000000 0.000000 0.000000
vn -1.000000 0.000000 0.000000
vn -1.000000 0.000000 0.000000
vn 0.000000 0.646572 -0.762853
vn 0.000000 0.646572 -0.762853
vn 0.000000 0.646572 -0.762853
vn 0.000000 0.646572 -0.762853
vn 0.000000 0.646572 -0.762853
vn -1.000000 0.000000 0.000000
vn -1.000000 0.000000 0.000000
vn -1.000000 0.000000 0.000000
vn -1.000000 0.000000 0.000000
vn 0.000000 -0.000000 1.000000
vn 0.000000 -0.000000 1.000000
vn 0.000000 -0.000000 1.000000
vn 0.000000 -0.000000 1.000000
vn 0.000000 -0.000000 1.000000
vn 1.000000 0.000000 0.000000
vn 1.000000 0.000000 0.000000
vn 1.000000 0.000000 0.000000
vn 1.000000 0.000000 0.000000
vn -0.000000 -0.000000 1.000000
vn -0.000000 -0.000000 1.000000
vn -0.000000 -0.000000 1.000000
vn -0.000000 -0.000000 1.000000
vn -0.000000 -0.000000 1.000000
vn 1.000000 0.000000 0.000000
vn 1.000000 0.000000 0.000000
vn 1.000000 0.000000 0.000000
vn 1.000000 0.000000 0.000000
vn 0.000000 0.000000 -1.000000
vn 0.000000 0.000000 -1.000000
vn 0.000000 0.000000 -1.000000
vn 0.000000 0.000000 -1.000000
vn -1.000000 0.000000 0.000000
vn -1.000000 0.000000 0.000000
vn -1.000000 0.000000 0.000000
vn -1.000000 0.000000 0.000000
vn 0.000000 0.000000 0.000000
vn 0.000000 0.000000 0.000000
vn 0.000000 0.000000 0.000000
vn 0.000000 0.000000 0.000000
vn 0.000000 -0.000000 1.000000
vn 0.000000 -0.000000 1.000000
vn 0.000000 -0.000000 1.000000
vn 0.000000 -0.000000 1.000000
vn 0.000000 0.000000 0.000000
vn 0.000000 0.000000 0.000000
vn 0.000000 0.000000 0.000000
vn 0.000000 0.000000 0.000000
vn 0.000000 -0.000000 1.000000
vn 0.000000 -0.000000 1.000000
vn 0.000000 -0.000000 1.000000
vn 0.000000 -0.000000 1.000000
vn 0.000000 -0.000000 1.000000
vn 0.000000 -0.000000 1.000000
vn 0.000000 -0.000000 1.000000
vn 0.000000 -0.000000 1.000000
vn 0.000000 -0.000000 1.000000
vn 0.000000 -0.000000 1.000000
vn 0.000000 -0.000000 1.000000
vn 0.000000 -0.000000 1.000000
vn 0.000000 -0.000000 1.000000
vn 0.000000 -0.000000 1.000000
vn 0.000000 -0.000000 1.000000
vn 0.000000 -0.000000 1.000000
vn 0.000000 -0.000000 1.000000
vn 0.000000 -0.000000 1.000000
vn 0.000000 0.000000 0.000000
vn 0.000000 0.000000 0.000000
vn 0.000000 0.000000 0.000000
vn 0.000000 0.000000 0.000000
vn 0.000000 0.000000 0.000000
vn 0.000000 0.000000 0.000000
vn 0.000000 0.000000 0.000000
vn 0.000000 0.000000 0.000000
vn 0.000000 -0.000000 1.000000
vn 0.000000 -0.000000 1.000000
vn 0.000000 -0.000000 1.000000
vn 0.000000 -0.000048 -1.000000
vn 0.000000 -0.000000 1.000000
vn 0.000000 -0.000000 1.000000
vn 0.000000 -0.000000 1.000000
vn 0.000000 -0.000000 1.000000
vn 0.000000 -0.000000 1.000000
vn 0.000000 -0.000000 1.000000
vn 0.000000 0.000000 0.000000
vn 0.000000 0.000000 0.000000
vn 0.000000 0.000000 0.000000
vn 0.000000 0.000000 0.000000
vn 0.000000 -0.000000 1.000000
vn 0.000000 -0.000000 1.000000
vn 0.000000 -0.000000 1.000000
vn 0.000000 -0.000000 1.000000
vn 0.000000 0.000000 0.000000
vn 0.000000 0.000000 0.000000
vn 0.000000 0.000000 0.000000
vn 0.000000 0.000000 0.000000
vn 0.000000 -0.000000 1.000000
vn 0.000000 -0.000000 1.000000
vn 0.000000 -0.000000 1.000000
vn 0.000000 -0.000000 1.000000
vn 0.000000 -0.000000 1.000000
vn 0.000000 -0.000000 1.000000
vn 0.000000 -0.000000 1.000000
vn 0.000000 -0.000000 1.000000
vn 0.000000 -1.000000 -0.000000
vn 0.000000 -1.000000 -0.000000
vn 0.000000 -1.000000 -0.000000
vn 0.000000 -1.000000 -0.000000
vn 0.000000 0.000000 -1.000000
vn 0.000000 0.000000 -1.000000
vn 0.000000 0.000000 -1.000000
vn 0.000000 0.000000 -1.000000
vn 0.000000 1.000000 0.000000
vn 0.000000 1.000000 0.000000
vn 0.000000 1.000000 0.000000
vn 0.000000 1.000000 0.000000
vn 0.000000 -0.000000 1.000000
vn 0.000000 -0.000000 1.000000
vn 0.000000 -0.000000 1.000000
vn 0.000000 -0.000000 1.000000
vn 0.000002 0.646571 -0.762854
vn 0.000002 0.646569 -0.762855
vn 0.000002 0.646569 -0.762855
vn 0.000002 0.646571 -0.762854
vn 0.000002 0.646569 -0.762855
vn 0.000000 0.646567 -0.762857
vn 0.000000 0.646567 -0.762857
vn 0.000002 0.646569 -0.762855
vn 0.000000 0.646567 -0.762857
vn -0.000002 0.646568 -0.762856
vn -0.000002 0.646568 -0.762856
vn 0.000000 0.646567 -0.762857
vn -0.000002 0.646568 -0.762856
vn -0.000002 0.646571 -0.762854
vn -0.000002 0.646571 -0.762854
vn -0.000002 0.646568 -0.762856
vn -0.000002 0.646571 -0.762854
vn 0.000002 0.646571 -0.762854
vn 0.000002 0.646571 -0.762854
vn -0.000002 0.646571 -0.762854
vn 1.000000 0.000000 0.000000
vn 1.000000 0.000000 0.000000
vn 1.000000 0.000000 0.000000
vn 1.000000 0.000000 0.000000
vn 0.000000 -0.762846 -0.646581
vn 0.000000 -0.762846 -0.646580
vn 0.000000 -0.762846 -0.646580
vn 0.000000 -0.762846 -0.646581
vn 0.000000 -0.762846 -0.646580
vn 0.000000 -0.762846 -0.646580
vn 0.000000 -0.762846 -0.646580
vn 0.000000 -0.762846 -0.646580
vn -1.000000 0.000000 0.000000
vn -1.000000 0.000000 0.000000
vn -1.000000 0.000000 0.000000
vn -1.000000 0.000000 0.000000
vn 0.000000 0.762849 0.646576
vn 0.000000 0.762849 0.646576
vn 0.000000 0.762849 0.646576
vn 0.000000 0.762849 0.646576
vn 0.000000 0.000000 -1.000000
vn -0.000002 0.000000 -1.000000
vn -0.000002 0.000000 -1.000000
vn 0.000000 0.000000 -1.000000
vn -0.000002 0.000000 -1.000000
vn -0.000002 0.000000 -1.000000
vn -0.000002 0.000000 -1.000000
vn -0.000002 0.000000 -1.000000
vn -0.000002 0.000000 -1.000000
vn 0.000000 0.000000 -1.000000
vn 0.000000 0.000000 -1.000000
vn -0.000002 0.000000 -1.000000
vn 0.000002 0.000000 -1.000000
vn 0.000000 0.000000 -1.000000
vn 0.000000 0.000000 -1.000000
vn 0.000002 0.000000 -1.000000
vn 0.000000 0.000000 -1.000000
vn 0.000002 0.000000 -1.000000
vn 0.000002 0.000000 -1.000000
vn 0.000000 0.000000 -1.000000
vn 0.000002 0.000000 -1.000000
vn 0.000002 0.000000 -1.000000
vn 0.000002 0.000000 -1.000000
vn 0.000002 0.000000 -1.000000
vn 0.000000 1.000000 0.000000
vn 0.000000 1.000000 0.000000
vn 0.000000 1.000000 0.000000
vn 0.000000 1.000000 0.000000
vn 1.000000 0.000000 0.000000
vn 1.000000 0.000000 0.000000
vn 1.000000 0.000000 0.000000
vn 1.000000 0.000000 0.000000
vn 0.000000 -1.000000 -0.000000
vn 0.000000 -1.000000 -0.000000
vn 0.000000 -1.000000 -0.000000
vn 0.000000 -1.000000 -0.000000
vn 0.000000 1.000000 0.000000
vn 0.000000 1.000000 0.000000
vn 0.000000 1.000000 0.000000
vn 0.000000 1.000000 0.000000
vn 0.000000 -1.000000 -0.000000
vn 0.000000 -1.000000 -0.000000
vn 0.000000 -1.000000 -0.000000
vn 0.000000 -1.000000 -0.000000
vn -1.000000 0.000000 0.000000
vn -1.000000 0.000000 0.000000
vn -1.000000 0.000000 0.000000
vn -1.000000 0.000000 0.000000
vn 0.000000 0.000001 -1.000000
vn 0.000000 0.000001 -1.000000
vn 0.000000 0.000000 -1.000000
vn 0.000000 0.000000 -1.000000
vn -0.000001 0.000000 -1.000000
vn -0.000001 0.000000 -1.000000
vn 0.000000 0.000000 -1.000000
vn 0.000000 0.000000 -1.000000
vn 0.000000 0.000001 -1.000000
vn 0.000000 0.000001 -1.000000
vn 0.000000 0.000000 -1.000000
vn 0.000000 0.000000 -1.000000
vn 0.000000 0.000001 -1.000000
vn 0.000000 0.000001 -1.000000
vn 0.000000 0.000000 -1.000000
vn 0.000000 0.000000 -1.000000
vn 0.000000 0.000001 -1.000000
vn 0.000000 0.000001 -1.000000
vn 0.000000 0.000000 -1.000000
vn 0.000000 0.000000 -1.000000
vn 0.000001 0.000000 -1.000000
vn 0.000001 0.000000 -1.000000
vn 0.000000 0.000000 -1.000000
vn 0.000000 0.000000 -1.000000
vn 0.000000 0.000000 -1.000000
vn 0.000000 0.000000 -1.000000
vn 0.000000 0.000000 -1.000000
vn 0.000000 0.000000 -1.000000
vn 0.000000 0.000000 -1.000000
vn 0.000000 0.000000 -1.000000
vn 0.000000 0.000000 -1.000000
vn 0.000000 0.000000 -1.000000
vn -0.000001 0.000001 -1.000000
vn -0.000001 0.000001 -1.000000
vn -0.000001 0.000001 -1.000000
vn 0.000000 0.000000 -1.000000
vn 0.000000 0.000000 -1.000000
vn 0.000000 0.000000 -1.000000
vn 0.000000 0.000000 -1.000000
vn 0.000000 0.000000 -1.000000
vn 0.000001 0.000001 -1.000000
vn 0.000001 0.000001 -1.000000
vn 0.000000 0.000000 -1.000000
vn 0.000001 0.000001 -1.000000
vn 0.000000 0.000000 -1.000000
vn 0.000000 0.000000 -1.000000
vn 0.000000 0.000000 -1.000000
vn 0.000000 0.000000 -1.000000
vn 0.000000 1.000000 0.000000
vn 0.000000 1.000000 0.000000
vn 0.000000 1.000000 0.000000
vn 0.000000 1.000000 0.000000
vn 0.000000 -1.000000 0.000000
vn 0.000000 -1.000000 0.000000
vn 0.000000 0.000000 -1.000000
vn 0.000000 0.000000 -1.000000
vn -0.737792 -0.675028 0.000000
vn -0.737792 -0.675028 0.000000
vn -0.737792 -0.675028 0.000000
vn 0.000000 0.000000 -1.000000
vn 0.000000 1.000000 0.000000
vn 0.000000 1.000000 0.000000
vn 0.000000 1.000000 0.000000
vn 0.000000 1.000000 0.000000
vn 0.737792 -0.675028 0.000000
vn 0.737792 -0.675028 0.000000
vn 0.000000 0.000000 -1.000000
vn 0.737792 -0.675028 0.000000
vn 0.000000 -1.000000 0.000000
vn 0.000000 -1.000000 0.000000
vn 0.000000 0.000000 -1.000000
vn 0.000000 0.000000 -1.000000
s off
g polySurface524 polySurface380
usemtl lambert2SG
f 1/99/1 2/100/2 3/101/3 4/102/4
f 5/41/5 1/42/6 4/43/7 6/44/8
f 7/115/9 8/116/10 9/117/11 10/118/12 11/119/13
f 12/59/14 13/60/15 14/61/16 15/62/17
f 3/1/18 16/2/19 6/3/20 4/4/21
f 17/5/22 18/6/23 19/7/24 20/8/25
f 21/54/26 22/56/27 23/57/28 24/58/29 25/55/30
f 11/9/31 26/10/32 27/11/33 7/12/34
f 26/107/35 28/108/36 29/109/37 30/106/38 27/105/39
f 31/13/40 32/14/41 33/15/42 34/16/43
f 35/112/44 12/113/45 15/114/46 36/111/47 37/110/48
f 15/17/49 14/18/50 38/19/51 36/20/52
f 63/120/53 64/121/54 65/122/55 66/123/56
f 43/21/57 35/22/58 37/23/59 44/24/60
f 36//61 38//62 45//63 46//64
f 38//65 16//66 47//67 45//68
f 16//69 3//70 48//71 47//72
f 30//73 29//74 31//75 34//76
f 17//77 16//78 9//79 8//80 7//81
f 16//82 38//83 10//84 9//85
f 38/138/86 49/139/87 44/140/88 11/141/89 10/142/90
f 44//91 37//92 26//93 11//94
f 18//95 17//96 7//97 27//98
f 37/110/99 36/111/100 29/109/101 28/108/102 26/107/103
f 3/101/104 2/100/105 18/103/106 27/105/107 30/106/108
f 46//109 45//110 32//111 31//112
f 45//113 47//114 33//115 32//116
f 47//117 48//118 34//119 33//120
f 36//121 46//122 31//123 29//124
f 48//125 3//126 30//127 34//128
f 43/63/129 13/60/130 12/59/131 35/64/132
f 67/124/133 64/121/134 63/120/135 68/125/136
f 19/45/137 1/42/138 5/41/139 20/46/140
f 18/103/141 2/100/142 1/99/143 19/104/144
f 17/52/145 20/46/146 52/49/147 53/53/148
f 20/46/149 5/41/150 54/48/151 52/49/152
f 5/41/153 6/44/154 55/47/155 54/48/156
f 6/44/157 16/50/158 56/51/159 55/47/160
f 16/50/161 17/52/162 53/53/163 56/51/164
f 53/25/165 52/26/166 22/27/167 21/28/168
f 52/65/169 54/66/170 23/67/171 22/68/172
f 54/66/173 55/69/174 24/70/175 23/67/176
f 55/29/177 56/30/178 25/31/179 24/32/180
f 56/51/181 53/53/182 21/54/183 25/55/184
f 49/143/185 38/144/186 57/145/187 58/146/188
f 38/144/189 14/147/190 59/148/191 57/145/192
f 14/147/193 13/151/194 60/152/195 59/148/196
f 44/149/197 49/143/198 58/146/199 61/150/200
f 13/151/201 43/153/202 62/154/203 60/152/204
f 43/153/205 44/149/206 61/150/207 62/154/208
f 58/71/209 57/72/210 41/73/211 40/74/212
f 57/33/213 59/34/214 42/35/215 41/36/216
f 59/77/217 60/78/218 39/79/219 42/80/220
f 61/75/221 58/71/222 40/74/223 50/76/224
f 60/78/225 62/81/226 51/82/227 39/79/228
f 62/37/229 61/38/230 50/39/231 51/40/232
f 40/126/233 41/127/234 65/122/235 64/121/236
f 41/127/237 42/128/238 66/123/239 65/122/240
f 75/155/241 76/156/242 77/157/243 78/158/244
f 50/131/245 40/126/246 64/121/247 67/124/248
f 76/156/249 79/159/250 80/160/251 77/157/252
f 51/133/253 50/131/254 67/124/255 68/125/256
f 42/128/257 39/136/258 70/137/259 69/134/260
f 63/120/261 66/123/262 72/129/263 71/130/264
f 66/123/265 42/128/266 69/134/267 72/129/268
f 39/136/269 51/133/270 73/135/271 70/137/272
f 51/133/273 68/125/274 74/132/275 73/135/276
f 68/125/277 63/120/278 71/130/279 74/132/280
f 69/83/281 70/84/282 76/85/283 75/86/284
f 71/89/285 72/90/286 78/91/287 77/92/288
f 72/90/289 69/93/290 75/94/291 78/91/292
f 70/84/293 73/87/294 79/88/295 76/85/296
f 73/97/297 74/95/298 80/96/299 79/98/300
f 74/95/301 71/89/302 77/92/303 80/96/304
